/* XPM */
static char *dummy[]={
"32 32 21 1",
". c #000000",
"s c #000053",
"b c #000060",
"a c #00006b",
"d c #000080",
"e c #02016a",
"n c #040269",
"r c #080468",
"f c #0b0666",
"g c #21115d",
"k c #26135b",
"h c #4c264b",
"o c #6c363e",
"i c #9b4e2a",
"j c #9e4f29",
"m c #b55b1f",
"q c #e0700d",
"l c #e8740a",
"p c #f47a05",
"c c #ff8000",
"# c #ffffff",
"................................",
".##############################.",
".#aaaaaaaaaaaaaaaaaaabbbbbbbbb#.",
".#aaaaaaaaaaaaaaaaaaabbbbbbbbb#.",
".#aaaaaaaaaaaaaaaaaaabbbbbbbbb#.",
".#aaaaaaaaaaaaaaaaaaabbbbbbbbb#.",
".#aaaaaaaaaaaaaaaaaaabbbbbbbbb#.",
".#aaaaaaaaaaaaaaaaaaabbbbbbbbb#.",
".#aaaaaaacccccaaaccccbbbbbbbbb#.",
".#aaaaaaaaacccaaaaaccbbbbbbbbb#.",
".#aaaaaaaaacccaaaaaccbbbbbbbbb#.",
".#aaaaaaaaacccaaaaaccddddddddd#.",
".#aaaaaaaaacccaaaaaccddddddddd#.",
".#aaaaaaaaacccaaaaaccddddddddd#.",
".#aaaaaaaaacccaaaaaccddddddddd#.",
".#aaaaaaaaaccceaaafccddddddddd#.",
".#aaaaaaaaacccfaaagccddddddddd#.",
".#aaaaaaaaaccchaaaiccddddddddd#.",
".#aaaaaaaaacccjaaklccddddddddd#.",
".#aaaaaaaaaccccccmnccccddddddd#.",
".#aaaaaaaaacccopqraccccddddddd#.",
".#bbbbbbbbbcccdddddddsssssssss#.",
".#bbbbbbbbbcccdddddddsssssssss#.",
".#bbbbbbbbbcccdddddddsssssssss#.",
".#bbbbbbbbbcccdddddddsssssssss#.",
".#bbbbbbbcccccccdddddsssssssss#.",
".#bbbbbbbbbddddddddddsssssssss#.",
".#bbbbbbbbbddddddddddsssssssss#.",
".#bbbbbbbbbddddddddddsssssssss#.",
".#bbbbbbbbbddddddddddsssssssss#.",
".##############################.",
"................................"};
